<?xml version="1.0" encoding="utf-8"?>
<!-- Generator: Adobe Illustrator 25.2.1, SVG Export Plug-In . SVG Version: 6.00 Build 0)  -->
<svg version="1.1" id="Layer_1" xmlns="http://www.w3.org/2000/svg" xmlns:xlink="http://www.w3.org/1999/xlink" x="0px" y="0px"
	 viewBox="0 0 500 500" style="enable-background:new 0 0 500 500;" xml:space="preserve">
<style type="text/css">
	.st0{fill:#010203;}
	.st1{fill:#1C6D9B;}
	.st2{fill:#E7F1FC;}
	.st3{fill:#3B98E2;}
	.st4{fill:#A4D8FF;}
	.st5{fill:#FFFFFF;}
</style>
<path id="background" class="st0" d="M137,423h251c9.9,0,18-8.1,18-18V65c0-9.9-8.1-18-18-18H137c-23.1,0-42,18.9-42,42v292
	C95,404.1,113.9,423,137,423z"/>
<g id="back">
	<path class="st1" d="M99,381V89c0-21,17-38,38-38v330H99z"/>
	<path class="st0" d="M133,55.2V377h-30V89C103,71.6,116.1,57.2,133,55.2 M141,47h-4c-23.1,0-42,18.9-42,42v296h46V47L141,47z"/>
</g>
<g id="pages">
	<path class="st2" d="M137,419c-21,0-38-17-38-38c0-19.9,16.1-36,36-36h267v60c0,7.7-6.3,14-14,14H137z"/>
	<path class="st0" d="M398,349v56c0,5.5-4.5,10-10,10H137c-18.7,0-34-15.3-34-34c0-17.6,14.4-32,32-32H398 M406,341H135
		c-22,0-40,18-40,40l0,0c0,23.1,18.9,42,42,42h251c9.9,0,18-8.1,18-18V341L406,341z"/>
</g>
<g id="cover">
	<path class="st3" d="M133,345V51h255c7.7,0,14,6.3,14,14v280H133z"/>
	<path class="st0" d="M388,55c5.5,0,10,4.5,10,10v276H137V55H388 M388,47H133c-2.2,0-4,1.8-4,4v294c0,2.2,1.8,4,4,4h273V65
		C406,55.1,397.9,47,388,47L388,47z"/>
</g>
<path id="bookmark_x5F_back" class="st0" d="M235,454c-3,1.2-6.5,0.8-9.3-0.8l-13.5-7.7c-4.1-2.7-9.4-2.8-13.5-0.1l-12.4,7.7
	c-2.4,1.5-5.2,2.1-8,1.5c-4.7-1-8.4-3.6-8.4-8.5v-62c0-6.6,5.5-12,12.2-12h45.7c6.7,0,12.2,5.4,12.2,12v62
	C240,450.3,238.1,452.8,235,454z"/>
<path id="bookmark_x5F_front" class="st4" d="M226.4,439.4c-2.2,0.8-4.6,0.5-6.6-0.6l-9.6-5.5c-2.9-1.9-6.7-2-9.6-0.1l-8.8,5.5
	c-1.7,1.1-3.7,1.5-5.7,1.1c-3.3-0.7-6-2.5-6-6.1v-44.3c0-4.7,3.9-8.6,8.7-8.6h32.6c4.8,0,8.7,3.9,8.7,8.6v44.3
	C230,436.7,228.7,438.5,226.4,439.4z"/>
<path id="page" class="st0" d="M140.5,371h229c4.7,0,8.5,3.8,8.5,8.5l0,0c0,4.7-3.8,8.5-8.5,8.5h-229c-4.7,0-8.5-3.8-8.5-8.5l0,0
	C132,374.8,135.8,371,140.5,371z"/>
<g>
	<g>
		<path class="st5" d="M278.8,217.3l1.9-59.7c0.4-13.2,1.7-25.7,3.7-37.3c-3.6,4.4-8.1,10.9-13.5,19.7
			c-16.3,26.2-33.8,50.7-52.6,73.7c-1.4-8.2-2.5-17.8-3.3-28.9c-0.8-11-1.3-20.7-1.3-28.9c0-11.7,1.1-21,3.3-28s6.4-14.6,12.5-22.9
			c-11.6,1.3-20.9,5-27.7,11c-6.8,6.1-10.3,12.3-10.3,18.6c0,2.4,0.7,4.7,2,7.1c1.6,2.9,2.4,4.9,2.4,5.8c0,1.6-0.5,2.9-1.5,4
			s-2.3,1.6-3.8,1.6c-2,0-3.6-0.9-4.9-2.7c-1.7-2.3-2.5-5.4-2.5-9.1c0-5.6,1.6-11.4,4.9-17.3c3.2-5.9,7.6-10.7,12.9-14.5
			s11.5-6.6,18.4-8.3c3.8-0.9,10.1-1.9,19-2.9c3-0.4,6-0.8,9-1.2c-13.4,18.8-20.1,37.8-20.1,57c0,6,0.5,17.9,1.4,35.7
			c3.6-4.4,6.9-8.6,9.9-12.7c2-2.8,7.3-10.7,15.9-23.6c13.8-21,24.1-35.8,31-44.3c4.9-5.9,10.4-11.5,16.5-16.6
			c-6,23.4-9,56.9-9,100.5l23.3-28.8c6.2-7.8,12.6-16.9,19-27.2c6.4-10.4,10.6-18.6,12.7-24.8c1.3-4,1.9-7.8,1.9-11.4
			c0-3.5-0.8-7.2-2.4-11.1c-1-2.5-1.5-4.3-1.5-5.4c0-1.7,0.6-3.1,1.8-4.2c1.2-1.1,2.7-1.7,4.6-1.7c2.3,0,4.2,1.1,5.6,3.2
			c2,2.8,3,6.6,3,11.3c0,6.2-2.1,14.5-6.4,24.7s-13.8,25.1-28.6,44.7C306.8,187.3,291.1,205.7,278.8,217.3z"/>
	</g>
</g>
</svg>
