<svg width="500" height="500" viewBox="0 0 500 500" fill="none" xmlns="http://www.w3.org/2000/svg">
<g filter="url(#filter0_i_62_2)">
<path fill-rule="evenodd" clip-rule="evenodd" d="M237.169 441.719C228.838 437.938 224.583 431.92 220.555 424.885C209.479 424.885 199.998 420.949 192.11 413.076C184.223 405.204 180.279 395.74 180.279 384.685V313.33C179.04 312.512 177.77 311.678 176.474 310.828L176.416 310.79L176.399 310.778C157.008 298.047 132.027 281.645 120.872 261.573C108.957 240.133 103 216.85 103 191.725C103 151.19 117.18 116.769 145.541 88.4613C173.902 60.1537 208.389 46 249 46C289.611 46 324.098 60.1537 352.459 88.4613C380.82 116.769 395 151.19 395 191.725C395 217.52 389.043 240.97 377.128 262.075C366.096 281.615 341.542 297.71 322.245 310.358L322.245 310.358L322.229 310.369C320.689 311.378 319.184 312.365 317.721 313.33V384.685C317.721 395.74 313.777 405.204 305.89 413.076C298.002 420.949 288.521 424.885 277.445 424.885C273.417 431.92 269.046 437.497 260.831 441.719C252.5 446 245.5 445.5 237.169 441.719ZM266.589 145.326C270.91 149.249 273.071 154.454 273.071 160.942C273.071 165.318 271.82 169.354 269.318 173.05C266.816 176.746 261.699 181.989 253.966 188.779C247.9 194.211 243.579 199.378 241.001 204.282C238.423 209.185 237.134 214.579 237.134 220.463C237.134 223.933 238.385 226.838 240.887 229.176C243.389 231.515 246.384 232.684 249.871 232.684C253.359 232.684 256.354 231.477 258.856 229.063C261.358 226.649 262.912 223.632 263.518 220.011C264.125 216.239 265.414 212.882 267.385 209.939C269.356 206.997 273.147 202.886 278.757 197.605C286.49 190.212 291.798 183.8 294.679 178.368C297.56 172.937 299 166.826 299 160.037C299 146.609 294.413 135.746 285.239 127.447C276.066 119.149 264.125 115 249.417 115C240.47 115 232.244 116.999 224.739 120.997C217.233 124.996 211.054 130.616 206.202 137.858C204.534 140.423 203.813 143.139 204.041 146.005C204.268 148.872 205.444 151.286 207.566 153.247C210.599 155.963 214.2 157.057 218.37 156.529C222.54 156.001 225.838 154.002 228.264 150.532C230.842 146.911 233.912 144.157 237.476 142.271C241.039 140.385 245.019 139.442 249.417 139.442C256.543 139.442 262.267 141.404 266.589 145.326ZM236.566 281.682C240.129 285.227 244.413 287 249.417 287C254.42 287 258.704 285.227 262.267 281.682C265.831 278.136 267.612 273.874 267.612 268.895C267.612 263.916 265.831 259.654 262.267 256.108C258.704 252.562 254.42 250.789 249.417 250.789C244.413 250.789 240.129 252.562 236.566 256.108C233.003 259.654 231.221 263.916 231.221 268.895C231.221 273.874 233.003 278.136 236.566 281.682ZM209 331C209 328.791 210.791 327 213 327H285C287.209 327 289 328.791 289 331V343C289 345.209 287.209 347 285 347H213C210.791 347 209 345.209 209 343V331ZM213 367C210.791 367 209 368.791 209 371V381C209 383.209 210.791 385 213 385H285C287.209 385 289 383.209 289 381V371C289 368.791 287.209 367 285 367H213Z" fill="url(#paint0_linear_62_2)"/>
</g>
<defs>
<filter id="filter0_i_62_2" x="95" y="38" width="300" height="406.745" filterUnits="userSpaceOnUse" color-interpolation-filters="sRGB">
<feFlood flood-opacity="0" result="BackgroundImageFix"/>
<feBlend mode="normal" in="SourceGraphic" in2="BackgroundImageFix" result="shape"/>
<feColorMatrix in="SourceAlpha" type="matrix" values="0 0 0 0 0 0 0 0 0 0 0 0 0 0 0 0 0 0 127 0" result="hardAlpha"/>
<feOffset dx="-8" dy="-8"/>
<feGaussianBlur stdDeviation="6"/>
<feComposite in2="hardAlpha" operator="arithmetic" k2="-1" k3="1"/>
<feColorMatrix type="matrix" values="0 0 0 0 0 0 0 0 0 0 0 0 0 0 0 0 0 0 0.25 0"/>
<feBlend mode="normal" in2="shape" result="effect1_innerShadow_62_2"/>
</filter>
<linearGradient id="paint0_linear_62_2" x1="249" y1="46" x2="249" y2="444.745" gradientUnits="userSpaceOnUse">
<stop stop-color="#F1C453"/>
<stop offset="0.528355" stop-color="#EF8320"/>
<stop offset="1" stop-color="#562D07"/>
</linearGradient>
</defs>
</svg>
