<?xml version="1.0" encoding="utf-8"?>
<!-- Generator: Adobe Illustrator 25.2.1, SVG Export Plug-In . SVG Version: 6.00 Build 0)  -->
<svg version="1.1" id="Layer_1" xmlns="http://www.w3.org/2000/svg" xmlns:xlink="http://www.w3.org/1999/xlink" x="0px" y="0px"
	 viewBox="0 0 512 512" style="enable-background:new 0 0 512 512;" xml:space="preserve">
<style type="text/css">
	.st0{fill:#BEE7FF;stroke:#6FA8FF;stroke-miterlimit:10;}
	.st1{fill:#6495ED;stroke:#6FA8FF;stroke-miterlimit:10;}
	.st2{fill:#FFFFFF;}
	.st3{fill:#92D38C;stroke:#6FA8FF;stroke-miterlimit:10;}
	.st4{fill:#FFD700;stroke:#6FA8FF;stroke-miterlimit:10;}
	.st5{fill:none;stroke:#FFFFFF;stroke-width:8;stroke-linecap:round;stroke-miterlimit:10;}
</style>
<g id="Layer_1_1_">
	<circle id="CoreElips" class="st0" cx="256" cy="276" r="162.5"/>
	<g id="Sadness">
		<circle class="st1" cx="137" cy="386" r="80"/>
		<path class="st2" d="M136.7,345.6c8.3-0.3,28.1,35,29.9,49.3c1.4,11.5-8.5,30.5-30.2,30.7c-21.6,0.2-31.6-19.1-31-30.7
			C106.2,380.5,127.8,346,136.7,345.6z"/>
	</g>
	<g id="Neutrality">
		<circle class="st3" cx="376.4" cy="386" r="80"/>
		<path class="st2" d="M414.5,403.4c8.3-6.4,6.6-18.6-5.3-22.6c-0.7-0.2-1.1-0.9-0.9-1.6c3-17.3-16.6-29.5-28.4-11.2
			c-0.4,0.6-1.2,0.9-2,0.6c-3.2-1.3-11.9-3.6-17.1,6.2c-0.4,0.8-1.3,1.2-2.2,1.1c-17.4-2.3-25,15.5-13.5,25.7
			c3.6,3.2,8.3,4.8,13.1,4.8h46.7C408.4,406.5,411.8,405.5,414.5,403.4z"/>
	</g>
	<g id="Happiness">
		<circle class="st4" cx="255.9" cy="112.3" r="80"/>
		<g id="Sun">
			
				<ellipse transform="matrix(0.1602 -0.9871 0.9871 0.1602 105.0465 346.0674)" class="st2" cx="255.9" cy="111.3" rx="22.2" ry="22.2"/>
			<line class="st5" x1="275.9" y1="77.1" x2="270.4" y2="85.9"/>
			<line class="st5" x1="295.7" y1="111.1" x2="285.4" y2="111.1"/>
			<line class="st5" x1="270.5" y1="137.1" x2="275.7" y2="146.1"/>
			<line class="st5" x1="240.9" y1="137.1" x2="235.7" y2="146.1"/>
			<line class="st5" x1="226" y1="111.1" x2="215.7" y2="111.1"/>
			<line class="st5" x1="235.7" y1="77" x2="240.9" y2="86"/>
		</g>
	</g>
</g>
</svg>
