<?xml version="1.0" encoding="utf-8"?>
<!-- Generator: Adobe Illustrator 25.2.1, SVG Export Plug-In . SVG Version: 6.00 Build 0)  -->
<svg version="1.1" id="Layer_2" xmlns="http://www.w3.org/2000/svg" xmlns:xlink="http://www.w3.org/1999/xlink" x="0px" y="0px"
	 viewBox="0 0 500 500" style="enable-background:new 0 0 500 500;" xml:space="preserve">
<style type="text/css">
	.st0{fill:#FFFFFF;}
</style>
<g>
	<path class="st0" d="M303.7,74.2l34.1-2.5l-54.4,31.9l-10.2-10.2l45.9-40.3l172,172L450.9,271l-9.3-9.3l31.9-54.4l-2.5,34.1
		L303.7,74.2z M267.3,309.5c-39.3,39.3-78.3,78.3-115.7,117c-10.5,10.9-28,11-38.7,0.3l-14.1-14.1c46.2-44.1,91.8-89.7,137-134.9
		l21.9-21.9c46-46,91.6-91.6,131.2-133.3l33.7,33.7c-42.6,40.5-88.2,86.1-133.3,131.2L267.3,309.5z M137.3,408.2l69.6,9.3l0,24.8
		l-149.1,0l0-24.8l69.6-9.3L137.3,408.2z"/>
</g>
<g>
	<path class="st0" d="M32.9,241.5l-2.5-34.1l31.9,54.4l-9.3,9.3l-40.3-45.9l172-172l45.9,40.3l-10.2,10.2l-54.4-31.9l34.1,2.5
		L32.9,241.5z M214.7,287.6c-45.2-45.2-90.8-90.8-133.3-131.2l33.7-33.7c39.6,41.7,85.2,87.3,131.2,133.3l21.9,21.9
		c45.2,45.2,90.8,90.8,137,134.9l-14.1,14.1c-10.7,10.7-28.2,10.6-38.7-0.3c-37.5-38.8-76.4-77.7-115.7-117L214.7,287.6z
		 M376.6,408.2l69.6,9.3v24.8l-149.1,0l0-24.8l69.6-9.3L376.6,408.2z"/>
</g>
</svg>
